<?xml version="1.0" encoding="UTF-8" standalone="no"?>
<!-- Created with Inkscape (http://www.inkscape.org/) -->

<svg
   xmlns:dc="http://purl.org/dc/elements/1.1/"
   xmlns:cc="http://creativecommons.org/ns#"
   xmlns:rdf="http://www.w3.org/1999/02/22-rdf-syntax-ns#"
   xmlns:svg="http://www.w3.org/2000/svg"
   xmlns="http://www.w3.org/2000/svg"
   xmlns:sodipodi="http://sodipodi.sourceforge.net/DTD/sodipodi-0.dtd"
   xmlns:inkscape="http://www.inkscape.org/namespaces/inkscape"
   width="225"
   height="225"
   viewBox="0 0 59.531249 59.531251"
   version="1.1"
   id="svg1102"
   inkscape:version="0.92.4 (5da689c313, 2019-01-14)"
   sodipodi:docname="Favicon-BW.svg">
  <defs
     id="defs1096" />
  <sodipodi:namedview
     id="base"
     pagecolor="#ffffff"
     bordercolor="#666666"
     borderopacity="1.0"
     inkscape:pageopacity="0.0"
     inkscape:pageshadow="2"
     inkscape:zoom="2.8"
     inkscape:cx="-11.069527"
     inkscape:cy="91.614504"
     inkscape:document-units="mm"
     inkscape:current-layer="g869"
     showgrid="false"
     inkscape:pagecheckerboard="true"
     units="px"
     fit-margin-left="10"
     fit-margin-top="0"
     fit-margin-right="10"
     fit-margin-bottom="0"
     inkscape:window-width="1920"
     inkscape:window-height="1016"
     inkscape:window-x="0"
     inkscape:window-y="27"
     inkscape:window-maximized="1" />
  <metadata
     id="metadata1099">
    <rdf:RDF>
      <cc:Work
         rdf:about="">
        <dc:format>image/svg+xml</dc:format>
        <dc:type
           rdf:resource="http://purl.org/dc/dcmitype/StillImage" />
        <dc:title></dc:title>
      </cc:Work>
    </rdf:RDF>
  </metadata>
  <g
     inkscape:label="Ebene 1"
     inkscape:groupmode="layer"
     id="layer1"
     transform="translate(-59.909004,-33.294678)">
    <g
       transform="translate(15.938565,34.143213)"
       id="g869">
      <path
         inkscape:connector-curvature="0"
         id="path829"
         d="m 67.000816,5.115739 v 30.632239 h 7.264673 c 0.499533,0 0.980807,-0.04442 1.444357,-0.133324 0.463548,-0.0889 0.909302,-0.222176 1.336869,-0.399976 0.427566,-0.1778 0.836765,-0.399926 1.228349,-0.666626 0.391583,-0.2667 0.765262,-0.577678 1.120862,-0.933278 0.3556,-0.3556 0.667091,-0.729276 0.933791,-1.120859 0.2667,-0.391584 0.488826,-0.801301 0.666626,-1.228868 0.1778,-0.427567 0.311076,-0.873318 0.399976,-1.336868 0.0889,-0.46355 0.133326,-0.944822 0.133326,-1.444355 V 12.380412 c 0,-0.499534 -0.04443,-0.981321 -0.133326,-1.444871 -0.0889,-0.463551 -0.222176,-0.909305 -0.399976,-1.3368714 -0.1778,-0.4275666 -0.399926,-0.8367659 -0.666626,-1.2283493 -0.2667,-0.3915833 -0.578191,-0.7652596 -0.933791,-1.1208596 -0.3556,-0.3556 -0.729279,-0.666578 -1.120862,-0.933278 -0.391584,-0.2667 -0.800783,-0.4893416 -1.228349,-0.6671416 -0.427567,-0.1778 -0.873321,-0.3110759 -1.336869,-0.3999759 -0.46355,-0.0889 -0.944824,-0.1333262 -1.444357,-0.1333262 z"
         style="fill:#ffffff;fill-opacity:1;stroke:none;stroke-width:0.26458332;stroke-linecap:butt;stroke-linejoin:miter;stroke-miterlimit:4;stroke-dasharray:none;stroke-opacity:1;paint-order:normal" />
      <path
         style="fill:#000000;fill-opacity:1;stroke:none;stroke-width:0.26458332;stroke-linecap:butt;stroke-linejoin:miter;stroke-miterlimit:4;stroke-dasharray:none;stroke-opacity:1;paint-order:normal"
         d="M 65.942482,4.0574056 V 34.689644 h 7.264673 c 0.499533,0 0.980807,-0.04442 1.444357,-0.133324 0.463548,-0.0889 0.909302,-0.222176 1.336869,-0.399976 0.427566,-0.1778 0.836765,-0.399926 1.228349,-0.666626 0.391583,-0.2667 0.765262,-0.577678 1.120862,-0.933278 0.3556,-0.3556 0.667091,-0.729276 0.933791,-1.120859 0.2667,-0.391584 0.488826,-0.801301 0.666626,-1.228868 0.1778,-0.427567 0.311076,-0.873318 0.399976,-1.336868 0.0889,-0.46355 0.133326,-0.944822 0.133326,-1.444355 V 11.322078 c 0,-0.499534 -0.04443,-0.981321 -0.133326,-1.4448707 C 80.249086,9.413657 80.115809,8.9679029 79.938009,8.5403362 79.76021,8.1127696 79.538083,7.7035703 79.271383,7.3119869 79.004683,6.9204036 78.693192,6.5467273 78.337592,6.1911273 c -0.3556,-0.3556 -0.729278,-0.666578 -1.120862,-0.933278 -0.391584,-0.2667 -0.800783,-0.4893416 -1.228348,-0.6671416 -0.427568,-0.1778 -0.873322,-0.3110759 -1.33687,-0.3999759 -0.46355,-0.0889 -0.944824,-0.1333262 -1.444357,-0.1333262 z"
         id="path1691"
         inkscape:connector-curvature="0" />
      <path
         inkscape:connector-curvature="0"
         d="M 54.421481,0.46522999 V 40.15273 h 11.00878 V 58.427283 L 78.255504,40.15273 H 94.10898 V 0.46522999 Z M 65.400657,3.3668598 h 8.890413 c 0.6096,0 1.197018,0.054314 1.762167,0.1622637 0.565151,0.10795 1.107624,0.2698591 1.628323,0.4857591 0.5207,0.2159 1.019268,0.4859205 1.495517,0.8097705 0.47625,0.32385 0.930393,0.7014633 1.362189,1.1332633 0.431801,0.4402667 0.809416,0.9018111 1.133267,1.3844111 0.32385,0.4826 0.59387,0.9860862 0.80977,1.5110195 0.215898,0.5249334 0.377807,1.0713933 0.485757,1.63866 0.107949,0.567267 0.161747,1.155666 0.161747,1.765266 v 16.103412 c 0,0.6096 -0.0538,1.197014 -0.161747,1.762164 -0.107951,0.56515 -0.269859,1.108141 -0.485757,1.628841 -0.2159,0.5207 -0.48592,1.019268 -0.80977,1.495518 -0.32385,0.47625 -0.701466,0.929873 -1.133267,1.361673 -0.431796,0.440267 -0.885938,0.825801 -1.362189,1.156001 -0.476249,0.3302 -0.974817,0.60514 -1.495517,0.825273 -0.5207,0.220133 -1.063173,0.385511 -1.628323,0.495578 -0.565149,0.110066 -1.152567,0.164846 -1.762167,0.164846 h -8.890413 z"
         style="fill:#ffffff;fill-opacity:1;stroke:none;stroke-width:0.26458332;stroke-linecap:butt;stroke-linejoin:miter;stroke-miterlimit:4;stroke-dasharray:none;stroke-opacity:1;paint-order:normal"
         id="path831" />
      <path
         id="rect1673"
         style="fill:#000000;fill-opacity:1;stroke:none;stroke-width:0.26458332;stroke-linecap:butt;stroke-linejoin:miter;stroke-miterlimit:4;stroke-dasharray:none;stroke-opacity:1;paint-order:normal"
         d="M 53.363147,-0.59310335 V 39.094396 h 11.00878 V 57.368949 L 77.19717,39.094396 H 93.050646 V -0.59310335 Z M 64.342323,2.3085264 h 8.890413 c 0.6096,0 1.197018,0.054314 1.762167,0.1622637 0.565151,0.10795 1.107624,0.2698591 1.628323,0.4857591 0.5207,0.2159 1.019267,0.4859205 1.495517,0.8097705 0.47625,0.32385 0.930393,0.7014633 1.362189,1.1332633 0.431801,0.4402667 0.809416,0.9018111 1.133267,1.3844111 0.32385,0.4826 0.59387,0.9860862 0.80977,1.5110195 0.215898,0.5249334 0.377807,1.0713932 0.485757,1.6386599 0.107949,0.5672665 0.161747,1.1556655 0.161747,1.7652655 v 16.103412 c 0,0.6096 -0.0538,1.197014 -0.161747,1.762164 -0.107951,0.56515 -0.269859,1.108141 -0.485757,1.628841 -0.2159,0.5207 -0.48592,1.019268 -0.80977,1.495518 -0.32385,0.47625 -0.701466,0.929873 -1.133267,1.361673 -0.431796,0.440267 -0.885938,0.825801 -1.362189,1.156001 -0.47625,0.3302 -0.974817,0.60514 -1.495517,0.825273 -0.5207,0.220133 -1.063173,0.385511 -1.628323,0.495578 -0.565149,0.110066 -1.152567,0.164846 -1.762167,0.164846 h -8.890413 z"
         inkscape:connector-curvature="0" />
    </g>
  </g>
</svg>
