<?xml version="1.0" encoding="UTF-8" standalone="no"?>
<svg
   xmlns:dc="http://purl.org/dc/elements/1.1/"
   xmlns:cc="http://creativecommons.org/ns#"
   xmlns:rdf="http://www.w3.org/1999/02/22-rdf-syntax-ns#"
   xmlns:svg="http://www.w3.org/2000/svg"
   xmlns="http://www.w3.org/2000/svg"
   id="svg8"
   version="1.1"
   viewBox="0 0 40.74583 11.641667"
   height="44"
   width="154">
  <defs
     id="defs2" />
  <metadata
     id="metadata5">
    <rdf:RDF>
      <cc:Work
         rdf:about="">
        <dc:format>image/svg+xml</dc:format>
        <dc:type
           rdf:resource="http://purl.org/dc/dcmitype/StillImage" />
        <dc:title></dc:title>
      </cc:Work>
    </rdf:RDF>
  </metadata>
  <g
     transform="translate(2.5796874,-66.153584)"
     id="layer2">
    <g
       style="fill:#ffffff"
       transform="matrix(0.15128893,0,0,0.15128893,-1.9171176,66.288529)"
       id="g869">
      <path
         id="rect827"
         transform="matrix(0.26458333,0,0,0.26458333,-5.2916665,-5.2916673)"
         d="m 20.25,20.0625 v 170 h 115.97656 v 113.9668 l 70.11328,-113.9668 h 412.92969 v -170 z m 15.683594,20.808594 h 33.599609 c 9.216,0 17.089188,3.264973 23.617188,9.792968 6.528,6.656001 9.791019,14.592594 9.791019,23.808594 v 60.863284 c 0,9.216 -3.263019,17.08723 -9.791019,23.61523 -6.528,6.656 -14.401188,9.98438 -23.617188,9.98438 H 35.933594 Z m 100.124996,0 h 67.00782 v 6.144531 h -60.86329 v 54.912105 h 60.86329 v 6.14454 h -60.86329 v 54.7207 h 60.86329 v 6.14258 h -67.00782 z m 100.125,0 h 33.59961 c 9.216,0 17.08919,3.264974 23.61719,9.792968 6.528,6.656001 9.79102,14.592594 9.79102,23.808594 0,6.656 -1.791,12.799641 -5.375,18.431641 -3.584,5.376 -8.32099,9.407703 -14.20899,12.095703 5.888,2.688 10.62499,6.6563 14.20899,11.9043 3.584,5.632 5.375,11.77564 5.375,18.43164 0,9.216 -3.26302,17.08723 -9.79102,23.61523 -6.528,6.656 -14.40119,9.98438 -23.61719,9.98438 h -33.59961 z m 133.72461,0 c 9.344,0 17.2806,3.264971 23.8086,9.792968 6.528,6.528001 9.79101,14.464594 9.79101,23.808594 v 94.462894 h -6.33593 v -61.05469 h -54.71876 v 61.05469 h -6.14453 V 74.472656 c 0,-9.344 3.26302,-17.280593 9.79102,-23.808594 6.528,-6.527997 14.46459,-9.792968 23.80859,-9.792968 z m 66.52539,0 h 67.00782 v 6.144531 H 473.10547 V 168.93555 h -6.14453 V 47.015625 h -30.52735 z m 100.125,0 h 67.00782 v 6.144531 h -60.86329 v 54.912105 h 60.86329 v 6.14454 h -60.86329 v 54.7207 h 60.86329 v 6.14258 H 536.55859 Z M 42.078125,47.015625 V 162.79297 h 27.455078 c 7.552,0 14.016578,-2.68845 19.392578,-8.06445 5.376,-5.376 8.064453,-11.84058 8.064453,-19.39258 V 74.472656 c 0,-7.552 -2.688453,-14.016577 -8.064453,-19.392578 -5.376,-5.376 -11.840578,-8.064453 -19.392578,-8.064453 z m 200.249995,0 v 54.912105 h 27.45508 c 7.552,0 14.01658,-2.688451 19.39258,-8.064449 5.376,-5.376 8.06445,-11.838625 8.06445,-19.390625 0,-7.552 -2.68845,-14.016577 -8.06445,-19.392578 -5.376,-5.376 -11.84058,-8.064453 -19.39258,-8.064453 z m 127.58008,0 c -7.552,0 -14.01657,2.688453 -19.39258,8.064453 -5.37598,5.376001 -8.06248,11.840578 -8.0625,19.392578 v 27.455074 h 54.71876 V 74.472656 c 0,-7.552 -2.6231,-14.016577 -7.8711,-19.392578 -5.37599,-5.376 -11.84058,-8.064453 -19.39258,-8.064453 z M 242.32812,107.88086 v 54.91211 h 27.45508 c 7.552,0 14.01658,-2.68845 19.39258,-8.06445 5.376,-5.376 8.06445,-11.84058 8.06445,-19.39258 0,-7.552 -2.68845,-14.01658 -8.06445,-19.39258 -5.376,-5.376 -11.84058,-8.0625 -19.39258,-8.0625 z"
         style="fill:#ffffff;fill-opacity:1;stroke:none;stroke-width:0;stroke-miterlimit:4;stroke-dasharray:none;stroke-opacity:1" />
    </g>
    <g
       id="text1029"
       style="font-style:normal;font-weight:normal;font-size:10.58333302px;line-height:1.25;font-family:sans-serif;letter-spacing:0px;word-spacing:0px;display:inline;fill:#000000;fill-opacity:1;stroke:none;stroke-width:0.26458332"
       transform="translate(-3.28567,-0.71746676)"
       aria-label="Debate" />
  </g>
  <g
     style="display:inline"
     transform="translate(-0.7059826,-66.871051)"
     id="layer1">
    <g
       id="text841"
       style="font-style:normal;font-weight:normal;font-size:1.6011411px;line-height:1.25;font-family:sans-serif;letter-spacing:0px;word-spacing:0px;fill:#ffffff;fill-opacity:1;stroke:none;stroke-width:0.04002853"
       aria-label="GORY">
      <path
         id="path818"
         style="font-style:normal;font-variant:normal;font-weight:normal;font-stretch:normal;font-size:7.68547726px;font-family:Zector;-inkscape-font-specification:Zector;stroke-width:0.04002853;fill:#ffffff"
         d="m 27.418397,70.293143 h 1.337273 v 1.337273 q 0,0.553355 -0.391959,0.945314 -0.391959,0.399645 -0.945314,0.399645 -0.553354,0 -0.945313,-0.399645 -0.399645,-0.391959 -0.399645,-0.945314 V 69.19412 q 0,-0.553354 0.399645,-0.952999 0.391959,-0.391959 0.945313,-0.391959 0.553355,0 0.945314,0.391959 0.391959,0.399645 0.391959,0.952999 h -0.238249 q 0,-0.453443 -0.32279,-0.776233 -0.32279,-0.32279 -0.776234,-0.32279 -0.453443,0 -0.776233,0.32279 -0.32279,0.32279 -0.32279,0.776233 v 2.436296 q 0,0.453444 0.32279,0.776234 0.32279,0.32279 0.776233,0.32279 0.453444,0 0.776234,-0.32279 0.32279,-0.32279 0.32279,-0.776234 v -1.099023 h -1.099024 z" />
      <path
         id="path820"
         style="font-style:normal;font-variant:normal;font-weight:normal;font-stretch:normal;font-size:7.68547726px;font-family:Zector;-inkscape-font-specification:Zector;stroke-width:0.04002853;fill:#ffffff"
         d="m 31.426254,67.841476 q 0.553354,0 0.945313,0.39196 0.39196,0.399644 0.39196,0.952999 v 2.436296 q 0,0.553354 -0.39196,0.945314 -0.391959,0.399645 -0.945313,0.399645 -0.553355,0 -0.945314,-0.399645 -0.399645,-0.39196 -0.399645,-0.945314 v -2.436296 q 0,-0.553355 0.399645,-0.952999 0.391959,-0.39196 0.945314,-0.39196 z m 1.099023,1.344959 q 0,-0.453443 -0.32279,-0.776233 -0.32279,-0.322791 -0.776233,-0.322791 -0.453443,0 -0.776233,0.322791 -0.322791,0.32279 -0.322791,0.776233 v 2.436296 q 0,0.453443 0.322791,0.776233 0.32279,0.32279 0.776233,0.32279 0.453443,0 0.776233,-0.32279 0.32279,-0.32279 0.32279,-0.776233 z" />
      <path
         id="path822"
         style="font-style:normal;font-variant:normal;font-weight:normal;font-stretch:normal;font-size:7.68547726px;font-family:Zector;-inkscape-font-specification:Zector;stroke-width:0.04002853;fill:#ffffff"
         d="m 36.771383,72.798609 -0.16908,0.169081 -2.267216,-2.267216 v 2.267216 h -0.245935 v -5.126214 h 1.344958 q 0.553354,0 0.945314,0.39196 0.391959,0.399644 0.391959,0.952999 0,0.553354 -0.391959,0.945313 -0.39196,0.399645 -0.945314,0.399645 h -0.929943 z m -2.436296,-2.513151 h 1.099023 q 0.453443,0 0.776233,-0.32279 0.32279,-0.32279 0.32279,-0.776233 0,-0.453443 -0.32279,-0.776233 -0.32279,-0.322791 -0.776233,-0.322791 h -1.099023 z" />
      <path
         id="path824"
         style="font-style:normal;font-variant:normal;font-weight:normal;font-stretch:normal;font-size:7.68547726px;font-family:Zector;-inkscape-font-specification:Zector;stroke-width:0.04002853;fill:#ffffff"
         d="m 40.77924,67.995186 -1.221991,2.436296 v 2.536208 h -0.245936 v -2.536208 l -1.214305,-2.436296 0.192137,-0.15371 1.145136,2.290272 1.145136,-2.290272 z" />
    </g>
  </g>
</svg>
